<svg id="airplane_1_" data-name="airplane (1)" xmlns="http://www.w3.org/2000/svg" width="16.658" height="12.01" viewBox="0 0 16.658 12.01">
  <g id="Group_478" data-name="Group 478">
    <path id="Path_6316" data-name="Path 6316" d="M16.6,119.249a.978.978,0,0,0-.563-.682c-.267-.1-2.655-.9-4.346.41-.413.32-1.177,1.005-2.332,2.091l-6.739-2.421a.651.651,0,0,0-.631.112l-.72.558a1.232,1.232,0,0,0-.416.986,1.206,1.206,0,0,0,.441.966l4.5,3.207c-.76.715-1.5,1.4-1.949,1.81l-2.018-1.592a.654.654,0,0,0-.838,0l-.576.446A1.2,1.2,0,0,0,0,126.01a1.319,1.319,0,0,0,.3.954l2.745,3.028a.705.705,0,0,0,.578.252l1.857-.15a.691.691,0,0,0,.366-.147l7.926-6.137a11.644,11.644,0,0,0,2.744-3.55A1.448,1.448,0,0,0,16.6,119.249Zm-3.244,3.594L5.433,128.98l-1.857.149L.831,126.1l.576-.446,2.473,1.951s1.986-1.806,3.5-3.267l-5.688-4.055.72-.558,7.114,2.557c1.111-1.051,2.107-1.966,2.587-2.338,1.441-1.116,3.714-.3,3.714-.3A10.662,10.662,0,0,1,13.359,122.843Z" transform="translate(0.001 -118.236)" fill="#fff"/>
  </g>
</svg>
