<svg xmlns="http://www.w3.org/2000/svg" width="22.679" height="22.678" viewBox="0 0 22.679 22.678">
  <g id="call" transform="translate(-1 -1.018)">
    <g id="Group_547" data-name="Group 547" transform="translate(1.381 1.398)">
      <path id="Path_6447" data-name="Path 6447" d="M29.383,26.308l-1.153,1.92a2.381,2.381,0,0,1-.786.8,2.2,2.2,0,0,1-.593.261c-1.912.525-6.134.635-12.9-6.134S7.293,12.17,7.819,10.258a2.2,2.2,0,0,1,.261-.593,2.381,2.381,0,0,1,.8-.786L10.8,7.725a.957.957,0,0,1,1.289.291l1.667,2.494L15.151,12.6a.965.965,0,0,1-.208,1.289l-.461.359-1.259.975a.962.962,0,0,0-.253,1.217,15.724,15.724,0,0,0,3.348,4.346,15.583,15.583,0,0,0,4.346,3.348.962.962,0,0,0,1.217-.253l.975-1.259.359-.461a.965.965,0,0,1,1.289-.208l2.158,1.44,2.43,1.621A.957.957,0,0,1,29.383,26.308Z" transform="translate(-7.601 -7.589)" fill="#fff"/>
      <path id="Path_6448" data-name="Path 6448" d="M28.627,43.374l-1.153,1.92c-.011.015-.019.03-.03.045a2.2,2.2,0,0,1-.593.261c-1.912.525-6.134.635-12.9-6.134S7.293,28.48,7.818,26.568a2.2,2.2,0,0,1,.261-.593c.015-.011.03-.019.045-.03l1.92-1.153a.957.957,0,0,1,1.289.291L13,27.577l1.395,2.094a.972.972,0,0,1-.208,1.289l-1.266.983-.454.351a.96.96,0,0,0-.253,1.217,15.724,15.724,0,0,0,3.348,4.346,15.583,15.583,0,0,0,4.346,3.348.96.96,0,0,0,1.217-.253l.351-.454.983-1.266a.972.972,0,0,1,1.289-.208l2.158,1.44,2.43,1.621A.957.957,0,0,1,28.627,43.374Z" transform="translate(-7.601 -23.9)" fill="#60ba6b"/>
    </g>
    <g id="Group_548" data-name="Group 548" transform="translate(1 1.018)">
      <path id="Path_6449" data-name="Path 6449" d="M18.956,23.7a6.7,6.7,0,0,0,1.776-.232,2.705,2.705,0,0,0,1.6-1.235l1.154-1.918a1.333,1.333,0,0,0-.4-1.8l-4.59-3.061a1.34,1.34,0,0,0-1.794.291l-1.337,1.719a.571.571,0,0,1-.733.154l-.254-.14A15.371,15.371,0,0,1,10.37,14.33a15.434,15.434,0,0,1-3.147-4.006l-.139-.254a.572.572,0,0,1,.151-.735L8.953,8A1.341,1.341,0,0,0,9.245,6.2L6.183,1.613a1.333,1.333,0,0,0-1.8-.4L2.467,2.362a2.708,2.708,0,0,0-1.235,1.6c-.691,2.519-.171,6.865,6.232,13.269C12.558,22.326,16.349,23.7,18.956,23.7ZM1.962,4.164A1.956,1.956,0,0,1,2.856,3.01l1.92-1.152a.578.578,0,0,1,.78.175l1.663,2.5,1.4,2.093a.582.582,0,0,1-.126.779L6.769,8.739a1.323,1.323,0,0,0-.35,1.7l.136.248a16.033,16.033,0,0,0,3.276,4.18,16.049,16.049,0,0,0,4.18,3.276l.248.137a1.323,1.323,0,0,0,1.7-.35l1.337-1.718a.582.582,0,0,1,.779-.126l4.59,3.061a.578.578,0,0,1,.175.78l-1.152,1.92a1.953,1.953,0,0,1-1.153.893c-2.325.638-6.387.11-12.534-6.037S1.323,6.489,1.962,4.164Z" transform="translate(-1 -1.018)" fill="#60ba6b"/>
      <path id="Path_6450" data-name="Path 6450" d="M283.006,70.08a6.432,6.432,0,0,1,6.425,6.425.378.378,0,1,0,.756,0,7.189,7.189,0,0,0-7.181-7.181.378.378,0,1,0,0,.756Z" transform="translate(-270.155 -66.299)" fill="#60ba6b"/>
      <path id="Path_6451" data-name="Path 6451" d="M283.006,121.28a4.162,4.162,0,0,1,4.157,4.157.378.378,0,1,0,.756,0,4.919,4.919,0,0,0-4.913-4.913.378.378,0,1,0,0,.756Z" transform="translate(-270.155 -115.231)" fill="#60ba6b"/>
      <path id="Path_6452" data-name="Path 6452" d="M283.006,172.48a1.892,1.892,0,0,1,1.89,1.89.378.378,0,1,0,.756,0,2.649,2.649,0,0,0-2.645-2.646.378.378,0,1,0,0,.756Z" transform="translate(-270.155 -164.164)" fill="#60ba6b"/>
    </g>
  </g>
</svg>
