<svg xmlns="http://www.w3.org/2000/svg" width="27.615" height="20.711" viewBox="0 0 27.615 20.711">
  <g id="gmail" transform="translate(0 -64)">
    <rect id="Rectangle_67" data-name="Rectangle 67" width="20" height="20" transform="translate(3.808 64.356)" fill="#eceff1"/>
    <path id="Path_6445" data-name="Path 6445" d="M256,156.639l10.356,8.178V148.672Z" transform="translate(-242.192 -80.105)" fill="#cfd8dc"/>
    <path id="Path_6446" data-name="Path 6446" d="M25.026,64h-.863L13.808,72.178,3.452,64H2.589A2.59,2.59,0,0,0,0,66.589V82.123a2.59,2.59,0,0,0,2.589,2.589h.863V68.567l10.356,7.965,10.356-7.967V84.711h.863a2.59,2.59,0,0,0,2.589-2.589V66.589A2.59,2.59,0,0,0,25.026,64Z" fill="#f44336"/>
  </g>
</svg>
