<svg xmlns="http://www.w3.org/2000/svg" width="21.461" height="21.535" viewBox="0 0 21.461 21.535">
  <g id="ins" transform="translate(0 0)">
    <g id="Group_145" data-name="Group 145" transform="translate(0 0)">
      <path id="Path_253" data-name="Path 253" d="M809.761,567.889v-4.652a.655.655,0,0,1,.049-.332.967.967,0,0,1,.344-.16l.222-.049v5.193h.886V562.6h.566v5.292h.886v-5.316h11.641a4.007,4.007,0,0,1,2.055.553,4.359,4.359,0,0,1,1.526,1.489,3.953,3.953,0,0,1,.6,2.018q.024.616.025,1.477-.025,1.822-.025,1.5h-6.6a.424.424,0,0,1-.345-.148,5.669,5.669,0,0,0-2.437-1.329,5.313,5.313,0,0,0-2.707.013,5.768,5.768,0,0,0-2.437,1.341.354.354,0,0,1-.246.123h-6.522l-.123-.025v-.935q-.025.294-.025-1.133a10.942,10.942,0,0,1,.049-1.132,3.987,3.987,0,0,1,1.649-2.978l.1-.025v4.5h.861Zm12.552,2.387h6.227v9.672a4.044,4.044,0,0,1-.566,2.092,4.158,4.158,0,0,1-1.526,1.514,4.115,4.115,0,0,1-2.092.554H811.312a3.885,3.885,0,0,1-2.092-.542,4.344,4.344,0,0,1-1.538-1.525,3.976,3.976,0,0,1-.578-2.092V570.3h6.227a5.416,5.416,0,0,0-.689,4.972,5.594,5.594,0,0,0,4.418,3.606,5.555,5.555,0,0,0,2.35-.185,5.376,5.376,0,0,0,2.067-1.157,5.223,5.223,0,0,0,1.378-1.969,5.546,5.546,0,0,0,.418-2.559A5.961,5.961,0,0,0,822.313,570.275Zm-4.479,7.383a4.292,4.292,0,0,1-2.141-.554,4.07,4.07,0,0,1-1.551-1.525,4.239,4.239,0,0,1,0-4.233,4.256,4.256,0,0,1,1.551-1.551,4.133,4.133,0,0,1,2.129-.578,4.07,4.07,0,0,1,2.117.578,4.293,4.293,0,0,1,1.538,1.551,4.195,4.195,0,0,1-3.643,6.312Zm3.1-4.208a3.148,3.148,0,0,0-1.551-2.707,3.128,3.128,0,0,0-3.126,0,3.125,3.125,0,0,0-1.132,1.132,3.128,3.128,0,0,0,0,3.126,3.2,3.2,0,0,0,1.132,1.144,2.967,2.967,0,0,0,1.563.431,3.032,3.032,0,0,0,1.563-.419,3.115,3.115,0,0,0,1.132-1.132A3.056,3.056,0,0,0,820.935,573.451Zm5.661-7.26v-1.133a.681.681,0,0,0-.184-.5.65.65,0,0,0-.48-.185q-1.133-.024-2.289,0a.618.618,0,0,0-.492.2.756.756,0,0,0-.172.517v2.265a.679.679,0,0,0,.184.5.65.65,0,0,0,.48.185h2.264a.638.638,0,0,0,.689-.689Z" transform="translate(-807.103 -562.572)" fill="#fff"/>
    </g>
  </g>
</svg>
