<svg xmlns="http://www.w3.org/2000/svg" width="26.314" height="21.359" viewBox="0 0 26.314 21.359">
  <g id="twt" transform="translate(0 0)">
    <path id="Path_303" data-name="Path 303" d="M974.84,1146.2v.691a15.613,15.613,0,0,1-.991,5.407,16.117,16.117,0,0,1-2.944,4.926,14.6,14.6,0,0,1-4.806,3.605,15.68,15.68,0,0,1-6.578,1.382,15.385,15.385,0,0,1-4.386-.631,14.919,14.919,0,0,1-3.905-1.772q.631.061,1.292.06a10.725,10.725,0,0,0,3.575-.6,11.2,11.2,0,0,0,3.124-1.682,5.394,5.394,0,0,1-3.124-1.1,5.2,5.2,0,0,1-1.892-2.658,5.363,5.363,0,0,0,.991.09,5.565,5.565,0,0,0,1.412-.18,5.215,5.215,0,0,1-2.193-1.006,5.354,5.354,0,0,1-1.547-1.893,5.622,5.622,0,0,1-.586-2.388v-.09a5.06,5.06,0,0,0,2.463.691,5.433,5.433,0,0,1-1.757-1.937,5.278,5.278,0,0,1-.646-2.568,5.364,5.364,0,0,1,.721-2.7,15.4,15.4,0,0,0,11.114,5.647,6.242,6.242,0,0,1-.12-1.232,5.256,5.256,0,0,1,.721-2.7,5.443,5.443,0,0,1,1.968-1.968,5.2,5.2,0,0,1,2.688-.736,5.347,5.347,0,0,1,3.935,1.713,10.494,10.494,0,0,0,3.424-1.322,5.22,5.22,0,0,1-.916,1.727,5.55,5.55,0,0,1-1.457,1.277,10.967,10.967,0,0,0,3.124-.871A11.292,11.292,0,0,1,974.84,1146.2Z" transform="translate(-951.23 -1140.849)" fill="#fff"/>
  </g>
</svg>
